G04 ================== begin FILE IDENTIFICATION RECORD ==================*
G04 Layout Name:  PROIECT1_CEF.brd*
G04 Film Name:    BOTTOM*
G04 File Format:  Gerber RS274X*
G04 File Origin:  Cadence Allegro 17.2-S025*
G04 Origin Date:  Fri Dec 12 21:50:02 2025*
G04 *
G04 Layer:  ETCH/BOTTOM*
G04 Layer:  PIN/BOTTOM*
G04 Layer:  VIA CLASS/BOTTOM*
G04 *
G04 Offset:    (0.00 0.00)*
G04 Mirror:    No*
G04 Mode:      Positive*
G04 Rotation:  0*
G04 FullContactRelief:  No*
G04 UndefLineWidth:     0.10*
G04 ================== end FILE IDENTIFICATION RECORD ====================*
%FSLAX25Y25*MOMM*%
%IR0*IPPOS*OFA0.00000B0.00000*MIA0B0*SFA1.00000B1.00000*%
%ADD10C,.7*%
%ADD11C,.41*%
%ADD12C,2.*%
G75*
%LPD*%
G75*
G36*
G01X100000Y100000D02*
Y3900000D01*
X3900000D01*
Y100000D01*
X100000D01*
G37*
%LPC*%
G75*
G36*
G01X1813000Y2410000D02*
X1670000D01*
G02Y2528000I-44000J59000D01*
G01X1813000D01*
G02Y2410000I44000J-59000D01*
G37*
G36*
G01X3592000Y2468000D02*
Y2363000D01*
G02X3474000I-59000J-44000D01*
G01Y2468000D01*
G02X3592000I59000J44000D01*
G37*
G36*
G01X3021000Y2060000D02*
X2895000Y1934000D01*
Y1932000D01*
G02X2811000Y2016000I-72000J12000D01*
G01X2812000D01*
X2938000Y2142000D01*
Y2144000D01*
G02X3022000Y2060000I72000J-12000D01*
G01X3021000D01*
G37*
G36*
G01X1932000Y2156000D02*
X1781000D01*
G02Y2274000I-44000J59000D01*
G01X1932000D01*
G02Y2156000I44000J-59000D01*
G37*
G36*
G01X2360000Y1709000D02*
X2038000Y1386000D01*
X1190000D01*
G02Y1504000I-44000J59000D01*
G01X1990000D01*
X2278000Y1791000D01*
Y1793000D01*
G02X2362000Y1709000I72000J-12000D01*
G01X2360000D01*
G37*
G36*
G01X3096000Y2679000D02*
Y2369000D01*
G02X2980000I-58000J-44000D01*
G01Y2679000D01*
G02X3096000I58000J44000D01*
G37*
G36*
G01X3087000Y3412000D02*
X2937000D01*
G02Y3528000I-44000J58000D01*
G01X3039000D01*
X3109000Y3598000D01*
X3160000D01*
G02Y3482000I44000J-58000D01*
G01X3157000D01*
X3087000Y3412000D01*
G37*
G36*
G01X1792000Y2990000D02*
X1680000D01*
G02Y3106000I-44000J58000D01*
G01X1792000D01*
G02Y2990000I44000J-58000D01*
G37*
G36*
G01X2636000Y3112000D02*
X2580000Y3056000D01*
Y3054000D01*
G02X2496000Y3138000I-72000J12000D01*
G01X2498000D01*
X2520000Y3160000D01*
Y3355000D01*
G02X2636000I58000J44000D01*
G01Y3112000D01*
G37*
G54D12*
X3489971Y508002D03*
X508002Y3489951D03*
%LPD*%
G75*
G54D10*
X371000Y1511000D03*
X638000Y1941000D03*
X373000Y2009000D03*
X1285000Y1115000D03*
X1648000Y1191000D03*
X1146000Y1445000D03*
X1626000Y2469000D03*
X1737000Y2215000D03*
X1636000Y3048000D03*
X2350000Y1781000D03*
X1857000Y2469000D03*
X1976000Y2215000D03*
X1836000Y3048000D03*
X2508000Y3066000D03*
X3178000Y1306000D03*
X2823000Y1944000D03*
X3038000Y2325000D03*
X3010000Y2132000D03*
X2578000Y3399000D03*
X2784000Y2845000D03*
X3038000Y2723000D03*
X2893000Y3470000D03*
X3204000Y3540000D03*
X3503000Y234000D03*
X3533000Y2512000D03*
Y2319000D03*
G54D11*
G01X2350000Y1781000D02*
X2014000Y1445000D01*
X1146000D01*
G01X1626000Y2469000D02*
X1857000D01*
G01X1976000Y2215000D02*
X1737000D01*
G01X1836000Y3048000D02*
X1636000D01*
G01X2508000Y3066000D02*
X2578000Y3136000D01*
Y3399000D01*
G01X3010000Y2132000D02*
X2823000Y1944000D01*
G01X3038000Y2723000D02*
Y2325000D01*
G01X3204000Y3540000D02*
X3133000D01*
X3063000Y3470000D01*
X2893000D01*
G01X3533000Y2512000D02*
Y2319000D01*
M02*
