M48
METRIC,TZ
T01C.4
;LEADER: 12 
;HEADER: 
;CODE  : ASCII 
;FILE  : PROIECT1_CEF-1-2.drl for  ... layers TOP and BOTTOM
;DESIGN: PROIECT1_CEF.brd
;T01 Holesize 1. = 0.400000 Tolerance = +0.000000/-0.000000 PLATED MM Quantity = 26
%
G90
T01
X1737000Y2215000
X1976000Y2215000
X3533000Y2319000
X3533000Y2512000
X3010000Y2132000
X2350000Y1781000
X3038000Y2325000
X1146000Y1445000
X2823000Y1944000
X3038000Y2723000
X3178000Y1306000
X1648000Y1191000
X2784000Y2845000
X1285000Y1115000
X371000Y1511000
X373000Y2009000
X638000Y1941000
X3503000Y234000
X2508000Y3066000
X2578000Y3399000
X1636000Y3048000
X1836000Y3048000
X3204000Y3540000
X2893000Y3470000
X1857000Y2469000
X1626000Y2469000
M30
